<svg width="24" height="24" viewBox="0 0 24 24" fill="none" xmlns="http://www.w3.org/2000/svg">
<g clip-path="url(#clip0_124_219)">
<path d="M7.07834 23.5515C6.60516 23.2367 6.18579 22.8477 5.83634 22.3995C5.45196 21.9369 5.09581 21.4515 4.76984 20.946C4.0049 19.8254 3.40502 18.6006 2.98859 17.3092C2.48834 15.8092 2.24609 14.3715 2.24609 12.9652C2.24609 11.3947 2.58584 10.0238 3.25034 8.87175C3.74293 7.97133 4.46715 7.21888 5.34809 6.69225C6.20182 6.16198 7.18277 5.87179 8.18759 5.85225C8.53934 5.85225 8.91809 5.90325 9.32009 6.00075C9.60884 6.0825 9.96059 6.2115 10.3903 6.372C10.9371 6.58275 11.2378 6.71175 11.3398 6.74325C11.6601 6.86025 11.9293 6.91125 12.1408 6.91125C12.3013 6.91125 12.5278 6.86025 12.7851 6.78225C12.9298 6.73125 13.2028 6.64125 13.5936 6.474C13.9806 6.333 14.2851 6.21225 14.5273 6.12225C14.8986 6.01275 15.2578 5.9115 15.5781 5.8605C15.9578 5.80065 16.343 5.78479 16.7263 5.81325C17.3906 5.85666 18.0448 5.99742 18.6681 6.231C19.6873 6.64125 20.5116 7.28175 21.1251 8.19225C20.8658 8.35207 20.6224 8.53642 20.3983 8.74275C19.9105 9.17518 19.4951 9.68284 19.1676 10.2465C18.7396 11.0168 18.5177 11.8845 18.5233 12.7657C18.5391 13.848 18.8166 14.8012 19.3633 15.6255C19.7653 16.2364 20.2877 16.7588 20.8986 17.1607C21.2113 17.3715 21.4806 17.5162 21.7386 17.6137C21.6178 17.9887 21.4888 18.3517 21.3366 18.7118C20.9913 19.519 20.5728 20.293 20.0863 21.024C19.6528 21.6532 19.3131 22.122 19.0551 22.434C18.6531 22.9102 18.2661 23.274 17.8753 23.5275C17.4456 23.8125 16.9378 23.9647 16.4218 23.9647C16.0724 23.9782 15.723 23.9359 15.3868 23.8395C15.0981 23.742 14.8123 23.6362 14.5311 23.5155C14.2387 23.3812 13.9372 23.2677 13.6288 23.1757C12.8666 22.98 12.0674 22.9787 11.3046 23.172C10.9918 23.262 10.6911 23.367 10.3941 23.496C9.97634 23.6715 9.69884 23.7892 9.53834 23.8395C9.21809 23.9333 8.88584 23.9917 8.54984 24.0112C8.03009 24.0112 7.54559 23.8628 7.06559 23.562L7.07834 23.5515ZM13.9333 5.09025C13.2538 5.43 12.6051 5.57475 11.9608 5.5275C11.8596 4.87875 11.9608 4.215 12.2301 3.48825C12.4593 2.87255 12.798 2.30339 13.2298 1.80825C13.6858 1.28702 14.2392 0.859782 14.8588 0.5505C15.5188 0.21075 16.1481 0.027 16.7496 0C16.8276 0.6795 16.7496 1.34775 16.4998 2.07C16.2687 2.70846 15.9306 3.30295 15.5001 3.828C15.0606 4.34995 14.5213 4.77884 13.9138 5.0895L13.9333 5.09025Z" fill="black"/>
</g>
<defs>
<clipPath id="clip0_124_219">
<rect width="24" height="24" fill="white"/>
</clipPath>
</defs>
</svg>
