<svg width="22" height="24" viewBox="0 0 22 24" fill="none" xmlns="http://www.w3.org/2000/svg">
<path d="M14.8848 18.2535H20.8463L19.1712 16.5277C18.7169 16.0596 18.4617 15.4248 18.4617 14.7629V10.883C18.4617 7.67377 16.471 4.94362 13.6925 3.9318V3.51239C13.6925 2.15551 12.6249 1.05554 11.3079 1.05554C9.99092 1.05554 8.9233 2.15551 8.9233 3.51239V3.9318C6.1448 4.94362 4.15412 7.67377 4.15412 10.883V14.7629C4.15412 15.4248 3.89891 16.0596 3.44463 16.5277L1.76953 18.2535H7.73101M14.8848 18.2535V19.4819C14.8848 21.5172 13.2834 23.1672 11.3079 23.1672C9.33243 23.1672 7.73101 21.5172 7.73101 19.4819V18.2535M14.8848 18.2535H7.73101" stroke="#001C37" stroke-width="1.6" stroke-linecap="round" stroke-linejoin="round"/>
</svg>
