<svg width="61" height="80" viewBox="0 0 61 80" fill="none" xmlns="http://www.w3.org/2000/svg">
<g opacity="0.3" clip-path="url(#clip0_197_636)">
<g clip-path="url(#clip1_197_636)">
<path d="M56.6379 54.8845C56.6379 55.886 56.24 56.8464 55.5319 57.5545C54.8238 58.2626 53.8634 58.6604 52.862 58.6604H7.55171C6.55029 58.6604 5.58989 58.2626 4.88178 57.5545C4.17367 56.8464 3.77586 55.886 3.77586 54.8845V32.2294C3.77586 31.228 4.17367 30.2676 4.88178 29.5595C5.58989 28.8514 6.55029 28.4535 7.55171 28.4535H11.977C14.9797 28.4519 17.8589 27.2581 19.9818 25.1346L23.1158 22.0082C23.8219 21.3018 24.7791 20.904 25.7778 20.9018H34.6284C35.6297 20.902 36.59 21.3 37.2979 22.0082L40.4243 25.1346C41.4764 26.187 42.7255 27.0217 44.1003 27.5912C45.4751 28.1607 46.9486 28.4537 48.4367 28.4535H52.862C53.8634 28.4535 54.8238 28.8514 55.5319 29.5595C56.24 30.2676 56.6379 31.228 56.6379 32.2294V54.8845ZM7.55171 24.6777C5.54887 24.6777 3.62807 25.4733 2.21185 26.8895C0.795625 28.3058 0 30.2266 0 32.2294L0 54.8845C0 56.8874 0.795625 58.8082 2.21185 60.2244C3.62807 61.6406 5.54887 62.4363 7.55171 62.4363H52.862C54.8648 62.4363 56.7856 61.6406 58.2019 60.2244C59.6181 58.8082 60.4137 56.8874 60.4137 54.8845V32.2294C60.4137 30.2266 59.6181 28.3058 58.2019 26.8895C56.7856 25.4733 54.8648 24.6777 52.862 24.6777H48.4367C46.434 24.6773 44.5135 23.8814 43.0976 22.465L39.9712 19.3386C38.5553 17.9223 36.6348 17.1264 34.6322 17.126H25.7816C23.7789 17.1264 21.8584 17.9223 20.4425 19.3386L17.3161 22.465C15.9002 23.8814 13.9797 24.6773 11.977 24.6777H7.55171Z" fill="#2A303E"/>
<path d="M30.2215 51.1092C27.718 51.1092 25.317 50.1147 23.5467 48.3444C21.7764 46.5742 20.7819 44.1731 20.7819 41.6696C20.7819 39.1661 21.7764 36.765 23.5467 34.9948C25.317 33.2245 27.718 32.23 30.2215 32.23C32.7251 32.23 35.1261 33.2245 36.8964 34.9948C38.6667 36.765 39.6612 39.1661 39.6612 41.6696C39.6612 44.1731 38.6667 46.5742 36.8964 48.3444C35.1261 50.1147 32.7251 51.1092 30.2215 51.1092ZM30.2215 54.8851C33.7265 54.8851 37.0879 53.4928 39.5663 51.0144C42.0447 48.536 43.437 45.1746 43.437 41.6696C43.437 38.1646 42.0447 34.8032 39.5663 32.3248C37.0879 29.8464 33.7265 28.4541 30.2215 28.4541C26.7166 28.4541 23.3552 29.8464 20.8768 32.3248C18.3984 34.8032 17.006 38.1646 17.006 41.6696C17.006 45.1746 18.3984 48.536 20.8768 51.0144C23.3552 53.4928 26.7166 54.8851 30.2215 54.8851ZM11.3423 34.1179C11.3423 34.6186 11.1434 35.0988 10.7893 35.4529C10.4352 35.8069 9.95504 36.0058 9.45433 36.0058C8.95362 36.0058 8.47342 35.8069 8.11937 35.4529C7.76531 35.0988 7.56641 34.6186 7.56641 34.1179C7.56641 33.6172 7.76531 33.137 8.11937 32.7829C8.47342 32.4289 8.95362 32.23 9.45433 32.23C9.95504 32.23 10.4352 32.4289 10.7893 32.7829C11.1434 33.137 11.3423 33.6172 11.3423 34.1179Z" fill="#2A303E"/>
</g>
</g>
<defs>
<clipPath id="clip0_197_636">
<rect width="60.4137" height="79.5642" fill="white"/>
</clipPath>
<clipPath id="clip1_197_636">
<rect width="60.4137" height="60.4137" fill="white" transform="translate(0 9.5752)"/>
</clipPath>
</defs>
</svg>
