<svg width="29" height="29" viewBox="0 0 29 29" fill="none" xmlns="http://www.w3.org/2000/svg">
<path opacity="0.65" d="M23.3662 14.5024C22.7252 14.5024 22.1104 14.2478 21.6571 13.7945C21.2039 13.3412 20.9492 12.7265 20.9492 12.0854C20.9492 11.4444 21.2039 10.8297 21.6571 10.3764C22.1104 9.9231 22.7252 9.66846 23.3662 9.66846C24.0072 9.66846 24.622 9.9231 25.0753 10.3764C25.5286 10.8297 25.7832 11.4444 25.7832 12.0854C25.7832 12.7265 25.5286 13.3412 25.0753 13.7945C24.622 14.2478 24.0072 14.5024 23.3662 14.5024ZM18.5322 8.05713C17.8912 8.05713 17.2764 7.80248 16.8232 7.34921C16.3699 6.89593 16.1152 6.28116 16.1152 5.64014C16.1152 4.99911 16.3699 4.38434 16.8232 3.93106C17.2764 3.47779 17.8912 3.22314 18.5322 3.22314C19.1733 3.22314 19.788 3.47779 20.2413 3.93106C20.6946 4.38434 20.9492 4.99911 20.9492 5.64014C20.9492 6.28116 20.6946 6.89593 20.2413 7.34921C19.788 7.80248 19.1733 8.05713 18.5322 8.05713ZM10.4756 8.05713C9.83456 8.05713 9.21979 7.80248 8.76651 7.34921C8.31324 6.89593 8.05859 6.28116 8.05859 5.64014C8.05859 4.99911 8.31324 4.38434 8.76651 3.93106C9.21979 3.47779 9.83456 3.22314 10.4756 3.22314C11.1166 3.22314 11.7314 3.47779 12.1847 3.93106C12.6379 4.38434 12.8926 4.99911 12.8926 5.64014C12.8926 6.28116 12.6379 6.89593 12.1847 7.34921C11.7314 7.80248 11.1166 8.05713 10.4756 8.05713ZM5.6416 14.5024C5.00058 14.5024 4.3858 14.2478 3.93253 13.7945C3.47926 13.3412 3.22461 12.7265 3.22461 12.0854C3.22461 11.4444 3.47926 10.8297 3.93253 10.3764C4.3858 9.9231 5.00058 9.66846 5.6416 9.66846C6.28263 9.66846 6.8974 9.9231 7.35067 10.3764C7.80395 10.8297 8.05859 11.4444 8.05859 12.0854C8.05859 12.7265 7.80395 13.3412 7.35067 13.7945C6.8974 14.2478 6.28263 14.5024 5.6416 14.5024ZM14.5039 0.000488281C10.6577 0.000488281 6.96912 1.52837 4.24948 4.24801C1.52983 6.96766 0.00195313 10.6563 0.00195312 14.5024C0.00195313 18.3486 1.52983 22.0372 4.24948 24.7569C6.96912 27.4765 10.6577 29.0044 14.5039 29.0044C15.1449 29.0044 15.7597 28.7497 16.213 28.2965C16.6663 27.8432 16.9209 27.2284 16.9209 26.5874C16.9209 25.959 16.6792 25.395 16.2925 24.9761C15.9219 24.541 15.6802 23.9771 15.6802 23.3647C15.6802 22.7237 15.9348 22.1089 16.3881 21.6557C16.8414 21.2024 17.4561 20.9478 18.0972 20.9478H20.9492C23.086 20.9478 25.1352 20.0989 26.6461 18.588C28.157 17.0771 29.0059 15.0279 29.0059 12.8911C29.0059 5.76904 22.5122 0.000488281 14.5039 0.000488281Z" fill="#2A303E"/>
</svg>
