<svg width="24" height="24" viewBox="0 0 24 24" fill="none" xmlns="http://www.w3.org/2000/svg">
<path d="M5.92521 14.2773L5.16575 17.1124L2.38994 17.1712C1.56038 15.6325 1.08984 13.8721 1.08984 12.0014C1.08984 10.1924 1.52979 8.48646 2.30962 6.98438H2.31021L4.78146 7.43744L5.86402 9.89386C5.63744 10.5544 5.51395 11.2635 5.51395 12.0014C5.51403 12.8022 5.65909 13.5694 5.92521 14.2773Z" fill="#FBBB00"/>
<path d="M22.7169 9.96289C22.8422 10.6228 22.9075 11.3043 22.9075 12.0008C22.9075 12.7819 22.8254 13.5437 22.669 14.2786C22.1379 16.7793 20.7503 18.9629 18.8281 20.5081L18.8275 20.5075L15.7148 20.3487L15.2742 17.5987C16.5498 16.8506 17.5466 15.68 18.0717 14.2786H12.2383V9.96289H18.1568H22.7169Z" fill="#518EF8"/>
<path d="M18.8286 20.5081L18.8292 20.5087C16.9597 22.0114 14.5848 22.9105 11.9996 22.9105C7.84517 22.9105 4.2332 20.5884 2.39062 17.1712L5.92589 14.2773C6.84716 16.7361 9.21899 18.4863 11.9996 18.4863C13.1948 18.4863 14.3145 18.1632 15.2753 17.5992L18.8286 20.5081Z" fill="#28B446"/>
<path d="M18.9612 3.60327L15.4271 6.49657C14.4327 5.87501 13.2572 5.51594 11.9979 5.51594C9.15435 5.51594 6.73815 7.3465 5.86304 9.89339L2.30919 6.9839H2.30859C4.12419 3.4834 7.78172 1.0918 11.9979 1.0918C14.6449 1.0918 17.0718 2.03467 18.9612 3.60327Z" fill="#F14336"/>
</svg>
