<svg width="27" height="27" viewBox="0 0 27 27" fill="none" xmlns="http://www.w3.org/2000/svg">
<path opacity="0.65" d="M26.6764 18.6672V2.66715C26.6764 1.95991 26.3955 1.28163 25.8954 0.781537C25.3953 0.28144 24.717 0.000488281 24.0098 0.000488281H8.00977C7.30252 0.000488281 6.62424 0.28144 6.12415 0.781537C5.62405 1.28163 5.3431 1.95991 5.3431 2.66715V18.6672C5.3431 19.3744 5.62405 20.0527 6.12415 20.5528C6.62424 21.0529 7.30252 21.3338 8.00977 21.3338H24.0098C24.717 21.3338 25.3953 21.0529 25.8954 20.5528C26.3955 20.0527 26.6764 19.3744 26.6764 18.6672ZM12.0098 13.3338L14.7164 16.9472L18.6764 12.0005L24.0098 18.6672H8.00977M0.00976562 5.33382V24.0005C0.00976563 24.7077 0.290717 25.386 0.790814 25.8861C1.29091 26.3862 1.96919 26.6672 2.67643 26.6672H21.3431V24.0005H2.67643V5.33382" fill="#2A303E"/>
</svg>
