<svg width="14" height="14" viewBox="0 0 14 14" fill="none" xmlns="http://www.w3.org/2000/svg">
<path opacity="0.65" d="M13.2121 9.60092V1.92443C13.2121 1.58511 13.0773 1.25969 12.8374 1.01975C12.5974 0.779815 12.272 0.64502 11.9327 0.64502H4.25621C3.91689 0.64502 3.59147 0.779815 3.35153 1.01975C3.11159 1.25969 2.9768 1.58511 2.9768 1.92443V9.60092C2.9768 9.94024 3.11159 10.2657 3.35153 10.5056C3.59147 10.7455 3.91689 10.8803 4.25621 10.8803H11.9327C12.272 10.8803 12.5974 10.7455 12.8374 10.5056C13.0773 10.2657 13.2121 9.94024 13.2121 9.60092ZM6.17533 7.04209L7.47394 8.7757L9.37387 6.40238L11.9327 9.60092H4.25621M0.417969 3.20385V12.1597C0.417969 12.4991 0.552764 12.8245 0.7927 13.0644C1.03264 13.3044 1.35806 13.4392 1.69738 13.4392H10.6533V12.1597H1.69738V3.20385" fill="#2A303E"/>
</svg>
