<svg width="15" height="15" viewBox="0 0 15 15" fill="none" xmlns="http://www.w3.org/2000/svg">
<path opacity="0.65" d="M11.7136 7.12719C11.4061 7.12719 11.1111 7.00501 10.8936 6.78754C10.6762 6.57007 10.554 6.27511 10.554 5.96756C10.554 5.66001 10.6762 5.36505 10.8936 5.14758C11.1111 4.93011 11.4061 4.80794 11.7136 4.80793C12.0212 4.80794 12.3161 4.93011 12.5336 5.14758C12.7511 5.36505 12.8732 5.66001 12.8732 5.96756C12.8732 6.27511 12.7511 6.57007 12.5336 6.78754C12.3161 7.00501 12.0212 7.12719 11.7136 7.12719ZM9.39437 4.03485C9.08682 4.03485 8.79186 3.91268 8.57439 3.69521C8.35692 3.47773 8.23474 3.18278 8.23474 2.87523C8.23474 2.56767 8.35692 2.27272 8.57439 2.05525C8.79186 1.83777 9.08682 1.7156 9.39437 1.7156C9.70192 1.7156 9.99687 1.83777 10.2143 2.05525C10.4318 2.27272 10.554 2.56767 10.554 2.87523C10.554 3.18278 10.4318 3.47773 10.2143 3.69521C9.99687 3.91268 9.70192 4.03485 9.39437 4.03485ZM5.52895 4.03485C5.2214 4.03485 4.92644 3.91268 4.70897 3.69521C4.4915 3.47773 4.36932 3.18278 4.36932 2.87523C4.36932 2.56767 4.4915 2.27272 4.70897 2.05525C4.92644 1.83777 5.2214 1.7156 5.52895 1.7156C5.8365 1.7156 6.13146 1.83777 6.34893 2.05525C6.5664 2.27272 6.68857 2.56767 6.68857 2.87523C6.68857 3.18278 6.5664 3.47773 6.34893 3.69521C6.13146 3.91268 5.8365 4.03485 5.52895 4.03485ZM3.2097 7.12719C2.90215 7.12719 2.60719 7.00501 2.38972 6.78754C2.17225 6.57007 2.05007 6.27511 2.05007 5.96756C2.05007 5.66001 2.17225 5.36505 2.38972 5.14758C2.60719 4.93011 2.90215 4.80794 3.2097 4.80793C3.51725 4.80794 3.81221 4.93011 4.02968 5.14758C4.24715 5.36505 4.36932 5.66001 4.36932 5.96756C4.36932 6.27511 4.24715 6.57007 4.02968 6.78754C3.81221 7.00501 3.51725 7.12719 3.2097 7.12719ZM7.46166 0.169434C5.61635 0.169434 3.84662 0.90248 2.54178 2.20731C1.23695 3.51214 0.503906 5.28188 0.503906 7.12719C0.503906 8.9725 1.23695 10.7422 2.54178 12.0471C3.84662 13.3519 5.61635 14.0849 7.46166 14.0849C7.76921 14.0849 8.06417 13.9628 8.28164 13.7453C8.49911 13.5278 8.62128 13.2329 8.62128 12.9253C8.62128 12.6238 8.50532 12.3532 8.31978 12.1522C8.14197 11.9435 8.02601 11.6729 8.02601 11.3791C8.02601 11.0716 8.14818 10.7766 8.36566 10.5592C8.58313 10.3417 8.87808 10.2195 9.18563 10.2195H10.554C11.5792 10.2195 12.5623 9.81227 13.2873 9.08737C14.0122 8.36246 14.4194 7.37927 14.4194 6.3541C14.4194 2.93707 11.3039 0.169434 7.46166 0.169434Z" fill="#2A303E"/>
</svg>
