<svg width="24" height="24" viewBox="0 0 24 24" fill="none" xmlns="http://www.w3.org/2000/svg">
<path opacity="0.65" d="M0.00585938 19.0037V24.0037H5.00586L19.7525 9.25708L14.7525 4.25708L0.00585938 19.0037ZM23.6192 5.39041C23.7428 5.26706 23.8409 5.12054 23.9078 4.95925C23.9747 4.79795 24.0091 4.62504 24.0091 4.45041C24.0091 4.27579 23.9747 4.10288 23.9078 3.94158C23.8409 3.78028 23.7428 3.63377 23.6192 3.51041L20.4992 0.390414C20.3758 0.266809 20.2293 0.168745 20.068 0.101837C19.9067 0.0349282 19.7338 0.000488281 19.5592 0.000488281C19.3846 0.000488281 19.2117 0.0349282 19.0504 0.101837C18.8891 0.168745 18.7425 0.266809 18.6192 0.390414L16.1792 2.83041L21.1792 7.83041L23.6192 5.39041Z" fill="#423F3F"/>
</svg>
