<svg width="12" height="12" viewBox="0 0 12 12" fill="none" xmlns="http://www.w3.org/2000/svg">
<path opacity="0.65" d="M0.291016 9.24532V11.6442H2.68992L9.76508 4.56906L7.36618 2.17016L0.291016 9.24532ZM11.6202 2.71391C11.6795 2.65473 11.7266 2.58443 11.7587 2.50704C11.7908 2.42966 11.8073 2.3467 11.8073 2.26292C11.8073 2.17914 11.7908 2.09618 11.7587 2.01879C11.7266 1.9414 11.6795 1.8711 11.6202 1.81192L10.1233 0.315008C10.0641 0.255705 9.99384 0.208656 9.91645 0.176555C9.83906 0.144453 9.7561 0.12793 9.67232 0.12793C9.58854 0.12793 9.50558 0.144453 9.42819 0.176555C9.35081 0.208656 9.28051 0.255705 9.22133 0.315008L8.05066 1.48567L10.4496 3.88457L11.6202 2.71391Z" fill="#423F3F"/>
</svg>
