<svg width="20" height="21" viewBox="0 0 20 21" fill="none" xmlns="http://www.w3.org/2000/svg">
<path d="M0.175781 2.10474C0.175781 1.59088 0.37991 1.09807 0.743262 0.734717C1.10661 0.371365 1.59942 0.167236 2.11328 0.167236H17.6133C18.1271 0.167236 18.6199 0.371365 18.9833 0.734717C19.3467 1.09807 19.5508 1.59088 19.5508 2.10474V5.97974C19.5508 6.49359 19.3467 6.9864 18.9833 7.34976C18.6199 7.71311 18.1271 7.91724 17.6133 7.91724C17.0994 7.91724 16.6066 7.71311 16.2433 7.34976C15.8799 6.9864 15.6758 6.49359 15.6758 5.97974V4.04224H11.8008V16.9589H12.4466C12.9605 16.9589 13.4533 17.163 13.8166 17.5264C14.18 17.8897 14.3841 18.3825 14.3841 18.8964C14.3841 19.4103 14.18 19.9031 13.8166 20.2664C13.4533 20.6298 12.9605 20.8339 12.4466 20.8339H7.27995C6.76609 20.8339 6.27328 20.6298 5.90993 20.2664C5.54658 19.9031 5.34245 19.4103 5.34245 18.8964C5.34245 18.3825 5.54658 17.8897 5.90993 17.5264C6.27328 17.163 6.76609 16.9589 7.27995 16.9589H7.92578V4.04224H4.05078V5.97974C4.05078 6.49359 3.84665 6.9864 3.4833 7.34976C3.11995 7.71311 2.62714 7.91724 2.11328 7.91724C1.59942 7.91724 1.10661 7.71311 0.743262 7.34976C0.37991 6.9864 0.175781 6.49359 0.175781 5.97974V2.10474Z" fill="#7C7C7D"/>
</svg>
