<svg width="10" height="11" viewBox="0 0 10 11" fill="none" xmlns="http://www.w3.org/2000/svg">
<path d="M0.142578 1.09901C0.142578 0.85247 0.240515 0.616029 0.414844 0.4417C0.589173 0.267371 0.825614 0.169434 1.07215 0.169434H8.50875C8.75529 0.169434 8.99173 0.267371 9.16606 0.4417C9.34039 0.616029 9.43832 0.85247 9.43832 1.09901V2.95816C9.43832 3.2047 9.34039 3.44114 9.16606 3.61547C8.99173 3.78979 8.75529 3.88773 8.50875 3.88773C8.26221 3.88773 8.02577 3.78979 7.85144 3.61547C7.67711 3.44114 7.57917 3.2047 7.57917 2.95816V2.02858H5.72003V8.22575H6.02988C6.27642 8.22575 6.51286 8.32368 6.68719 8.49801C6.86152 8.67234 6.95946 8.90878 6.95946 9.15532C6.95946 9.40186 6.86152 9.6383 6.68719 9.81263C6.51286 9.98696 6.27642 10.0849 6.02988 10.0849H3.55102C3.30448 10.0849 3.06804 9.98696 2.89371 9.81263C2.71938 9.6383 2.62144 9.40186 2.62144 9.15532C2.62144 8.90878 2.71938 8.67234 2.89371 8.49801C3.06804 8.32368 3.30448 8.22575 3.55102 8.22575H3.86088V2.02858H2.00173V2.95816C2.00173 3.2047 1.90379 3.44114 1.72946 3.61547C1.55513 3.78979 1.31869 3.88773 1.07215 3.88773C0.825614 3.88773 0.589173 3.78979 0.414844 3.61547C0.240515 3.44114 0.142578 3.2047 0.142578 2.95816V1.09901Z" fill="#7C7C7D"/>
</svg>
